<?xml version="1.0" encoding="UTF-8"?>
<!DOCTYPE svg PUBLIC "-//W3C//DTD SVG 1.1//EN" "http://www.w3.org/Graphics/SVG/1.1/DTD/svg11.dtd">
<svg xmlns="http://www.w3.org/2000/svg" version="1.1" width="1080px" height="280px" style="shape-rendering:geometricPrecision; text-rendering:geometricPrecision; image-rendering:optimizeQuality; fill-rule:evenodd; clip-rule:evenodd" xmlns:xlink="http://www.w3.org/1999/xlink">
<g><path style="opacity:1" fill="#f7f7f7" d="M 109.5,34.5 C 113.56,34.4847 117.56,34.9847 121.5,36C 144.692,44.6173 167.692,53.6173 190.5,63C 194.257,66.4212 196.757,70.5879 198,75.5C 198.667,98.1667 198.667,120.833 198,143.5C 192.709,179.608 175.542,208.442 146.5,230C 136.129,237.022 124.796,241.522 112.5,243.5C 90.776,238.888 72.6093,228.221 58,211.5C 33.9393,181.636 23.7726,147.469 27.5,109C 27.6667,97.8333 27.8333,86.6667 28,75.5C 29.243,70.5879 31.743,66.4212 35.5,63C 59.74,52.2785 84.4067,42.7785 109.5,34.5 Z M 135.5,208.5 C 133.973,208.427 132.973,209.094 132.5,210.5C 128.527,213.044 124.527,215.377 120.5,217.5C 118.973,217.427 117.973,218.094 117.5,219.5C 117.167,219.5 116.833,219.5 116.5,219.5C 114.784,219.629 113.117,219.962 111.5,220.5C 82.7854,207.6 63.6187,185.933 54,155.5C 52.6145,150.239 51.6145,144.906 51,139.5C 50.5,120.17 50.3334,100.836 50.5,81.5C 71.4133,74.139 92.2466,66.4724 113,58.5C 133.753,66.4724 154.587,74.139 175.5,81.5C 175.667,99.8364 175.5,118.17 175,136.5C 171.981,166.214 158.815,190.214 135.5,208.5 Z"/></g>
<g><path style="opacity:0.463" fill="#414141" d="M 442.5,70.5 C 438.766,70.3227 435.099,70.6561 431.5,71.5C 431.611,70.8826 431.944,70.3826 432.5,70C 436.027,69.1925 439.36,69.3592 442.5,70.5 Z"/></g>
<g><path style="opacity:1" fill="#f5f5f5" d="M 417.5,87.5 C 418.906,87.0269 419.573,86.0269 419.5,84.5C 422.871,79.4672 426.871,75.1339 431.5,71.5C 435.099,70.6561 438.766,70.3227 442.5,70.5C 446.609,72.1125 449.109,75.1125 450,79.5C 450.667,121.167 450.667,162.833 450,204.5C 446.188,214.763 439.355,217.263 429.5,212C 427.781,210.13 426.781,207.963 426.5,205.5C 426.667,174.832 426.5,144.165 426,113.5C 425.283,114.044 424.783,114.711 424.5,115.5C 413.213,129.959 401.713,144.292 390,158.5C 383.613,166.58 376.279,167.58 368,161.5C 355.825,146.469 343.658,131.469 331.5,116.5C 331.217,115.711 330.717,115.044 330,114.5C 329.5,144.832 329.333,175.165 329.5,205.5C 328.328,211.691 324.495,214.691 318,214.5C 312.763,214.591 309.096,212.257 307,207.5C 306.169,163.665 306.335,119.998 307.5,76.5C 308.906,76.0269 309.573,75.0269 309.5,73.5C 313.759,69.2226 318.759,68.3893 324.5,71C 342.333,92.1667 360.167,113.333 378,134.5C 391.031,118.643 404.198,102.976 417.5,87.5 Z"/></g>
<g><path style="opacity:1" fill="#f9f9f9" d="M 781.5,92.5 C 780.504,105.656 780.171,118.99 780.5,132.5C 799.167,132.5 817.833,132.5 836.5,132.5C 841.35,133.638 844.016,136.804 844.5,142C 843.659,148.005 840.326,151.505 834.5,152.5C 816.5,152.5 798.5,152.5 780.5,152.5C 780.5,170.833 780.5,189.167 780.5,207.5C 777.202,215.646 771.536,217.646 763.5,213.5C 762.139,211.972 760.972,210.305 760,208.5C 759.333,165.167 759.333,121.833 760,78.5C 760.786,75.4173 762.619,73.2506 765.5,72C 793.5,71.3333 821.5,71.3333 849.5,72C 855.691,75.5866 857.524,80.7533 855,87.5C 853.457,89.3783 851.624,90.8783 849.5,92C 826.836,92.5 804.169,92.6666 781.5,92.5 Z"/></g>
<g><path style="opacity:0.51" fill="#6b6b6b" d="M 309.5,73.5 C 309.573,75.0269 308.906,76.0269 307.5,76.5C 307.427,74.9731 308.094,73.9731 309.5,73.5 Z"/></g>
<g><path style="opacity:1" fill="#f1f1f1" d="M 1041.5,79.5 C 1047.59,78.1372 1052.09,80.1372 1055,85.5C 1055.67,126.5 1055.67,167.5 1055,208.5C 1051.9,214.966 1047.07,216.799 1040.5,214C 1038.25,212.255 1036.58,210.088 1035.5,207.5C 1012.08,220.516 991.242,217.182 973,197.5C 958.385,173.689 961.219,152.189 981.5,133C 999.036,121.035 1016.87,120.535 1035,131.5C 1035.33,116.5 1035.67,101.5 1036,86.5C 1036.97,83.3794 1038.8,81.046 1041.5,79.5 Z M 987.5,183.5 C 987.573,181.973 986.906,180.973 985.5,180.5C 980.654,165.871 984.654,154.371 997.5,146C 1015.27,139.913 1027.77,145.413 1035,162.5C 1037.17,184.998 1027,195.831 1004.5,195C 997.116,193.646 991.449,189.812 987.5,183.5 Z"/></g>
<g><path style="opacity:0.761" fill="#666666" d="M 419.5,84.5 C 419.573,86.0269 418.906,87.0269 417.5,87.5C 417.427,85.9731 418.094,84.9731 419.5,84.5 Z"/></g>
<g><path style="opacity:1" fill="#f0f0f0" d="M 731.5,136.5 C 723.833,136.5 716.167,136.5 708.5,136.5C 708.171,151.01 708.504,165.343 709.5,179.5C 710.776,185.943 714.442,190.443 720.5,193C 725.251,193.189 729.917,193.855 734.5,195C 741.765,202.05 741.098,208.05 732.5,213C 708.515,215.016 694.349,204.183 690,180.5C 689.333,153.167 689.333,125.833 690,98.5C 693.086,90.2484 698.586,88.0818 706.5,92C 707.46,93.4194 708.293,94.9194 709,96.5C 709.5,103.492 709.666,110.492 709.5,117.5C 718.25,117.09 726.916,117.59 735.5,119C 740.968,124.999 740.634,130.665 734.5,136C 733.552,136.483 732.552,136.649 731.5,136.5 Z"/></g>
<g><path style="opacity:1" fill="#f5f5f5" d="M 111.5,97.5 C 127.504,99.2093 134.004,107.876 131,123.5C 128.833,128.333 125.333,131.833 120.5,134C 122.813,144.066 124.813,154.233 126.5,164.5C 126.255,167.168 124.921,169.002 122.5,170C 115.833,170.667 109.167,170.667 102.5,170C 100.99,168.649 99.9903,166.982 99.5,165C 101.505,154.63 103.505,144.297 105.5,134C 96.1881,128.869 92.6881,121.036 95,110.5C 98.0212,102.918 103.521,98.5849 111.5,97.5 Z"/></g>
<g><path style="opacity:0.075" fill="#0c0c0c" d="M 331.5,116.5 C 330.833,146.167 330.167,175.833 329.5,205.5C 329.333,175.165 329.5,144.832 330,114.5C 330.717,115.044 331.217,115.711 331.5,116.5 Z"/></g>
<g><path style="opacity:0.047" fill="#151515" d="M 426.5,205.5 C 425.833,175.5 425.167,145.5 424.5,115.5C 424.783,114.711 425.283,114.044 426,113.5C 426.5,144.165 426.667,174.832 426.5,205.5 Z"/></g>
<g><path style="opacity:1" fill="#efefef" d="M 490.5,202.5 C 490.027,201.094 489.027,200.427 487.5,200.5C 471.581,184.074 467.748,165.074 476,143.5C 477.306,140.379 479.14,137.713 481.5,135.5C 482.906,135.027 483.573,134.027 483.5,132.5C 484.833,130.5 486.5,128.833 488.5,127.5C 490.749,126.92 492.415,125.587 493.5,123.5C 503.937,116.174 515.603,113.341 528.5,115C 549.345,118.438 563.012,130.272 569.5,150.5C 569.122,154.768 567.122,157.935 563.5,160C 541.726,167.388 520.06,175.055 498.5,183C 507.876,193.45 519.209,196.45 532.5,192C 536.327,190.254 539.993,188.254 543.5,186C 553.498,185.682 557.331,190.515 555,200.5C 545.796,209.68 534.63,214.347 521.5,214.5C 514.619,213.946 507.952,212.446 501.5,210C 497.106,208.418 493.439,205.918 490.5,202.5 Z M 537.5,138.5 C 537.973,139.906 538.973,140.573 540.5,140.5C 541.5,142.167 542.833,143.5 544.5,144.5C 543.833,145.167 543.167,145.833 542.5,146.5C 525.473,152.009 508.639,158.009 492,164.5C 493.205,146.127 503.039,136.127 521.5,134.5C 527.175,134.585 532.508,135.919 537.5,138.5 Z"/></g>
<g><path style="opacity:1" fill="#f0f0f0" d="M 669.5,138.5 C 669.427,140.027 670.094,141.027 671.5,141.5C 675.822,147.59 675.489,153.423 670.5,159C 648.382,166.894 626.382,175.061 604.5,183.5C 614.016,193.504 625.349,196.337 638.5,192C 642.038,189.731 645.705,187.731 649.5,186C 660.299,186.08 663.799,191.247 660,201.5C 644.988,213.976 628.154,217.142 609.5,211C 605.44,209.311 601.773,207.144 598.5,204.5C 598.027,203.094 597.027,202.427 595.5,202.5C 579.687,188.729 574.353,171.729 579.5,151.5C 581.074,149.898 581.741,147.898 581.5,145.5C 581.263,144.209 581.596,143.209 582.5,142.5C 583.906,142.027 584.573,141.027 584.5,139.5C 585.433,136.63 587.1,134.296 589.5,132.5C 591.833,130.833 593.833,128.833 595.5,126.5C 596.579,124.457 598.246,123.124 600.5,122.5C 602.027,122.573 603.027,121.906 603.5,120.5C 604.391,119.89 605.391,119.557 606.5,119.5C 608.153,119.34 609.486,118.674 610.5,117.5C 632.755,110.772 651.588,116.105 667,133.5C 668.094,135.078 668.928,136.745 669.5,138.5 Z M 621.5,134.5 C 631.294,133.28 639.961,135.78 647.5,142C 649.007,142.837 649.507,144.004 649,145.5C 632,151.833 615,158.167 598,164.5C 598.538,148.794 606.372,138.794 621.5,134.5 Z"/></g>
<g><path style="opacity:1" fill="#efefef" d="M 872.5,201.5 C 871.415,199.413 869.749,198.08 867.5,197.5C 866.5,196.167 865.5,194.833 864.5,193.5C 864.715,191.821 864.048,190.821 862.5,190.5C 851.814,172.542 851.981,154.542 863,136.5C 863.708,135.619 864.542,134.953 865.5,134.5C 866.906,134.027 867.573,133.027 867.5,131.5C 867.833,130.5 868.5,129.833 869.5,129.5C 872.089,128.581 874.089,126.914 875.5,124.5C 886.03,116.365 898.03,113.199 911.5,115C 932.808,118.149 946.475,129.982 952.5,150.5C 952.129,154.75 950.129,157.917 946.5,160C 924.736,167.381 903.07,175.048 881.5,183C 890.873,193.45 902.206,196.45 915.5,192C 919.52,189.966 923.52,187.966 927.5,186C 937.87,186.547 941.203,191.714 937.5,201.5C 917.752,217.243 897.086,218.41 875.5,205C 874.29,203.961 873.29,202.794 872.5,201.5 Z M 926.5,143.5 C 927.833,144.5 927.833,145.5 926.5,146.5C 909.496,152.002 892.662,158.002 876,164.5C 875.667,150.825 881.833,141.325 894.5,136C 906.669,132.543 917.335,135.043 926.5,143.5 Z"/></g>
<g><path style="opacity:0.647" fill="#525252" d="M 610.5,117.5 C 609.486,118.674 608.153,119.34 606.5,119.5C 607.287,117.896 608.62,117.229 610.5,117.5 Z"/></g>
<g><path style="opacity:0.576" fill="#454545" d="M 603.5,120.5 C 603.027,121.906 602.027,122.573 600.5,122.5C 600.973,121.094 601.973,120.427 603.5,120.5 Z"/></g>
<g><path style="opacity:0.945" fill="#898989" d="M 493.5,123.5 C 492.415,125.587 490.749,126.92 488.5,127.5C 489.585,125.413 491.251,124.08 493.5,123.5 Z"/></g>
<g><path style="opacity:0.941" fill="#8c8c8c" d="M 875.5,124.5 C 874.089,126.914 872.089,128.581 869.5,129.5C 870.911,127.086 872.911,125.419 875.5,124.5 Z"/></g>
<g><path style="opacity:0.596" fill="#585858" d="M 595.5,126.5 C 593.833,128.833 591.833,130.833 589.5,132.5C 590.5,129.5 592.5,127.5 595.5,126.5 Z"/></g>
<g><path style="opacity:0.776" fill="#898989" d="M 781.5,92.5 C 781.5,105.5 781.5,118.5 781.5,131.5C 800.008,131.17 818.341,131.503 836.5,132.5C 817.833,132.5 799.167,132.5 780.5,132.5C 780.171,118.99 780.504,105.656 781.5,92.5 Z"/></g>
<g><path style="opacity:0.761" fill="#656565" d="M 867.5,131.5 C 867.573,133.027 866.906,134.027 865.5,134.5C 865.427,132.973 866.094,131.973 867.5,131.5 Z"/></g>
<g><path style="opacity:0.796" fill="#6b6b6b" d="M 483.5,132.5 C 483.573,134.027 482.906,135.027 481.5,135.5C 481.427,133.973 482.094,132.973 483.5,132.5 Z"/></g>
<g><path style="opacity:0.663" fill="#818181" d="M 731.5,136.5 C 724.352,137.492 717.019,137.825 709.5,137.5C 709.5,151.5 709.5,165.5 709.5,179.5C 708.504,165.343 708.171,151.01 708.5,136.5C 716.167,136.5 723.833,136.5 731.5,136.5 Z"/></g>
<g><path style="opacity:0.529" fill="#676767" d="M 537.5,138.5 C 539.027,138.427 540.027,139.094 540.5,140.5C 538.973,140.573 537.973,139.906 537.5,138.5 Z"/></g>
<g><path style="opacity:0.286" fill="#4f4f4f" d="M 669.5,138.5 C 670.906,138.973 671.573,139.973 671.5,141.5C 670.094,141.027 669.427,140.027 669.5,138.5 Z"/></g>
<g><path style="opacity:0.149" fill="#393939" d="M 584.5,139.5 C 584.573,141.027 583.906,142.027 582.5,142.5C 582.427,140.973 583.094,139.973 584.5,139.5 Z"/></g>
<g><path style="opacity:0.745" fill="#6c6c6c" d="M 544.5,144.5 C 545.043,144.56 545.376,144.893 545.5,145.5C 544.675,146.386 543.675,146.719 542.5,146.5C 543.167,145.833 543.833,145.167 544.5,144.5 Z"/></g>
<g><path style="opacity:0.604" fill="#707070" d="M 926.5,143.5 C 929.167,144.5 929.167,145.5 926.5,146.5C 927.833,145.5 927.833,144.5 926.5,143.5 Z"/></g>
<g><path style="opacity:0.714" fill="#7d7d7d" d="M 581.5,145.5 C 581.741,147.898 581.074,149.898 579.5,151.5C 579.259,149.102 579.926,147.102 581.5,145.5 Z"/></g>
<g><path style="opacity:0.09" fill="#151515" d="M 834.5,152.5 C 817.008,153.497 799.341,153.83 781.5,153.5C 781.83,171.674 781.497,189.674 780.5,207.5C 780.5,189.167 780.5,170.833 780.5,152.5C 798.5,152.5 816.5,152.5 834.5,152.5 Z"/></g>
<g><path style="opacity:0.075" fill="#292929" d="M 985.5,180.5 C 986.906,180.973 987.573,181.973 987.5,183.5C 986.094,183.027 985.427,182.027 985.5,180.5 Z"/></g>
<g><path style="opacity:0.973" fill="#717171" d="M 862.5,190.5 C 864.048,190.821 864.715,191.821 864.5,193.5C 863.599,192.71 862.932,191.71 862.5,190.5 Z"/></g>
<g><path style="opacity:0.576" fill="#4e4e4e" d="M 867.5,197.5 C 869.749,198.08 871.415,199.413 872.5,201.5C 870.251,200.92 868.585,199.587 867.5,197.5 Z"/></g>
<g><path style="opacity:0.749" fill="#666666" d="M 487.5,200.5 C 489.027,200.427 490.027,201.094 490.5,202.5C 488.973,202.573 487.973,201.906 487.5,200.5 Z"/></g>
<g><path style="opacity:0.396" fill="#515151" d="M 595.5,202.5 C 597.027,202.427 598.027,203.094 598.5,204.5C 596.973,204.573 595.973,203.906 595.5,202.5 Z"/></g>
<g><path style="opacity:0.733" fill="#626262" d="M 135.5,208.5 C 135.027,209.906 134.027,210.573 132.5,210.5C 132.973,209.094 133.973,208.427 135.5,208.5 Z"/></g>
<g><path style="opacity:0.918" fill="#666666" d="M 120.5,217.5 C 120.027,218.906 119.027,219.573 117.5,219.5C 117.973,218.094 118.973,217.427 120.5,217.5 Z"/></g>
<g><path style="opacity:0.004" fill="#2e2e2e" d="M 116.5,219.5 C 115.005,221.345 113.338,221.678 111.5,220.5C 113.117,219.962 114.784,219.629 116.5,219.5 Z"/></g>
</svg>
