<?xml version="1.0" encoding="UTF-8"?>
<!DOCTYPE svg PUBLIC "-//W3C//DTD SVG 1.1//EN" "http://www.w3.org/Graphics/SVG/1.1/DTD/svg11.dtd">
<svg xmlns="http://www.w3.org/2000/svg" version="1.1" width="1080px" height="280px" style="shape-rendering:geometricPrecision; text-rendering:geometricPrecision; image-rendering:optimizeQuality; fill-rule:evenodd; clip-rule:evenodd" xmlns:xlink="http://www.w3.org/1999/xlink">
<g><path style="opacity:0.972" fill="#000000" d="M 109.5,34.5 C 113.56,34.4847 117.56,34.9847 121.5,36C 144.692,44.6173 167.692,53.6173 190.5,63C 194.257,66.4212 196.757,70.5879 198,75.5C 198.667,98.1667 198.667,120.833 198,143.5C 192.709,179.608 175.542,208.442 146.5,230C 136.129,237.022 124.796,241.522 112.5,243.5C 90.776,238.888 72.6093,228.221 58,211.5C 33.9393,181.636 23.7726,147.469 27.5,109C 27.6667,97.8333 27.8333,86.6667 28,75.5C 29.243,70.5879 31.743,66.4212 35.5,63C 59.74,52.2785 84.4067,42.7785 109.5,34.5 Z M 111.5,58.5 C 132.833,66.1667 154.167,73.8333 175.5,81.5C 175.667,99.8364 175.5,118.17 175,136.5C 170.286,176.687 149.453,204.687 112.5,220.5C 83.1221,207.944 63.6221,186.278 54,155.5C 52.6145,150.239 51.6145,144.906 51,139.5C 50.5,120.17 50.3334,100.836 50.5,81.5C 71.1298,74.4043 91.4631,66.7376 111.5,58.5 Z"/></g>
<g><path style="opacity:0.948" fill="#000000" d="M 313.5,69.5 C 320.582,68.1249 326.082,70.4582 330,76.5C 345.523,96.2021 361.523,115.535 378,134.5C 395.593,112.456 413.76,90.9562 432.5,70C 441.172,68.0154 447.005,71.1821 450,79.5C 450.667,121.167 450.667,162.833 450,204.5C 445.889,214.978 438.889,217.311 429,211.5C 427.561,209.725 426.561,207.725 426,205.5C 425.667,175.5 425.333,145.5 425,115.5C 411.642,132.733 397.475,149.233 382.5,165C 377.007,166.358 372.173,165.191 368,161.5C 355.906,146.316 343.572,131.316 331,116.5C 330.667,146.167 330.333,175.833 330,205.5C 327.158,213.173 321.658,216.006 313.5,214C 310.333,212.833 308.167,210.667 307,207.5C 306.333,163.833 306.333,120.167 307,76.5C 308.694,73.6424 310.861,71.309 313.5,69.5 Z"/></g>
<g><path style="opacity:0.956" fill="#000000" d="M 765.5,71.5 C 793.502,71.3334 821.502,71.5 849.5,72C 855.691,75.5866 857.524,80.7533 855,87.5C 853.457,89.3783 851.624,90.8783 849.5,92C 826.836,92.5 804.169,92.6666 781.5,92.5C 781.5,105.5 781.5,118.5 781.5,131.5C 799.836,131.333 818.17,131.5 836.5,132C 846.165,137.689 846.832,144.356 838.5,152C 837.167,152.333 835.833,152.667 834.5,153C 816.836,153.5 799.17,153.667 781.5,153.5C 781.667,171.503 781.5,189.503 781,207.5C 777.344,215.613 771.511,217.613 763.5,213.5C 762.139,211.972 760.972,210.305 760,208.5C 759.333,165.167 759.333,121.833 760,78.5C 760.967,75.3794 762.8,73.046 765.5,71.5 Z"/></g>
<g><path style="opacity:0.95" fill="#000000" d="M 1041.5,79.5 C 1047.59,78.1372 1052.09,80.1372 1055,85.5C 1055.67,126.5 1055.67,167.5 1055,208.5C 1051.9,214.966 1047.07,216.799 1040.5,214C 1038.25,212.255 1036.58,210.088 1035.5,207.5C 1012.08,220.516 991.242,217.182 973,197.5C 958.385,173.689 961.219,152.189 981.5,133C 999.036,121.035 1016.87,120.535 1035,131.5C 1035.33,116.5 1035.67,101.5 1036,86.5C 1036.97,83.3794 1038.8,81.046 1041.5,79.5 Z M 1003.5,143.5 C 1026.49,142.655 1036.99,153.655 1035,176.5C 1029.92,190.898 1019.75,197.065 1004.5,195C 988.907,190.241 982.074,179.741 984,163.5C 987.351,153.65 993.851,146.983 1003.5,143.5 Z"/></g>
<g><path style="opacity:0.936" fill="#000000" d="M 698.5,89.5 C 703.651,89.4841 707.151,91.8175 709,96.5C 709.5,103.492 709.666,110.492 709.5,117.5C 717.174,117.334 724.841,117.5 732.5,118C 740.96,122.998 741.627,128.998 734.5,136C 726.251,137.406 717.917,137.906 709.5,137.5C 709.048,152.905 709.548,168.238 711,183.5C 712.833,188 716,191.167 720.5,193C 725.251,193.189 729.917,193.855 734.5,195C 741.765,202.05 741.098,208.05 732.5,213C 711.618,215.145 697.784,206.312 691,186.5C 689.383,157.201 689.049,127.868 690,98.5C 691.015,93.6543 693.849,90.6543 698.5,89.5 Z"/></g>
<g><path style="opacity:0.965" fill="#000000" d="M 111.5,97.5 C 127.504,99.2093 134.004,107.876 131,123.5C 128.833,128.333 125.333,131.833 120.5,134C 122.813,144.066 124.813,154.233 126.5,164.5C 126.255,167.168 124.921,169.002 122.5,170C 115.833,170.667 109.167,170.667 102.5,170C 100.99,168.649 99.9903,166.982 99.5,165C 101.505,154.63 103.505,144.297 105.5,134C 96.1881,128.869 92.6881,121.036 95,110.5C 98.0212,102.918 103.521,98.5849 111.5,97.5 Z"/></g>
<g><path style="opacity:0.941" fill="#000000" d="M 514.5,114.5 C 541.848,112.865 560.181,124.865 569.5,150.5C 569.122,154.768 567.122,157.935 563.5,160C 541.726,167.388 520.06,175.055 498.5,183C 507.876,193.45 519.209,196.45 532.5,192C 536.796,189.361 541.296,187.195 546,185.5C 554.325,187.132 557.325,192.132 555,200.5C 535.337,217.142 514.503,218.642 492.5,205C 472.572,188.46 467.072,167.96 476,143.5C 483.922,127.141 496.755,117.474 514.5,114.5 Z M 515.5,134.5 C 527.043,132.964 536.709,136.464 544.5,145C 526.972,151.508 509.472,158.008 492,164.5C 492.895,149.035 500.728,139.035 515.5,134.5 Z"/></g>
<g><path style="opacity:0.94" fill="#000000" d="M 620.5,114.5 C 642.386,112.86 659.219,121.193 671,139.5C 674.548,144.882 675.215,150.548 673,156.5C 671.786,158.049 670.286,159.215 668.5,160C 647.049,167.561 625.716,175.394 604.5,183.5C 614.016,193.504 625.349,196.337 638.5,192C 642.591,189.288 646.924,187.121 651.5,185.5C 659.887,186.603 663.053,191.27 661,199.5C 656.121,206.033 649.621,210.199 641.5,212C 617.109,217.717 597.943,210.217 584,189.5C 571.46,161.825 577.293,138.992 601.5,121C 607.645,118.053 613.979,115.887 620.5,114.5 Z M 621.5,134.5 C 631.294,133.28 639.961,135.78 647.5,142C 649.007,142.837 649.507,144.004 649,145.5C 632,151.833 615,158.167 598,164.5C 598.538,148.794 606.372,138.794 621.5,134.5 Z"/></g>
<g><path style="opacity:0.94" fill="#000000" d="M 897.5,114.5 C 921.987,112.986 939.821,122.986 951,144.5C 953.893,151.012 952.393,156.179 946.5,160C 924.736,167.381 903.07,175.048 881.5,183C 890.873,193.45 902.206,196.45 915.5,192C 919.852,189.147 924.518,186.98 929.5,185.5C 938.044,187.316 940.878,192.316 938,200.5C 933.788,205.36 928.622,208.86 922.5,211C 894.196,218.907 873.029,210.074 859,184.5C 849.802,158.095 856.635,136.929 879.5,121C 885.299,117.918 891.299,115.752 897.5,114.5 Z M 898.5,134.5 C 910.08,132.97 919.746,136.47 927.5,145C 910.403,151.629 893.237,158.129 876,164.5C 875.308,155.709 878.141,148.209 884.5,142C 888.826,138.673 893.492,136.173 898.5,134.5 Z"/></g>
</svg>
